:SAMPLES-PER-SECOND 30
:FULLY-SPECIFIED
:DEGREES
46
root  16.3026 38.3223 2.70161 -131.41 -81.7115 124.407
RightUpLeg  7.31616 -2.80134 -13.2353
RightLeg  50.5104 -1.22433 -1.902
RightFoot  7.74765 -1.78219 10.9559
RightToes  0.00048216 0.542163 -0.142577
Spine  10.4131 2.7735 -1.54565
Spine1  7.91186 4.25232 -5.10906
HEad  3.03714 0.200757 -1.24851
LeftShoulder1  6.8342 -10.6797 -41.8098
LeftArm  -14.6038 23.4752 -32.2052
LeftForeArm  31.8328 -7.54246 -3.54826
LeftHand  -0.25398 0.0180481 5.50724
RightShoulder  4.58276 8.28852 32.9206
RightArm  -2.03666 -0.0463146 44.5503
RightForeArm  8.69324 16.3472 5.76585
RightHand  -1.19808 2.92542 -16.9025
LeftUpLeg  -17.8027 14.7061 -12.5327
LeftLeg  22.4834 7.09466 3.54538
LeftFoot  -1.16058 -0.713369 8.08289
LeftToes  1.06246e-005 4.65856e-005 -8.18502e-006
47
root  14.9056 38.4809 2.82556 -131.624 -80.4176 124.121
RightUpLeg  0.373351 -0.0608821 -13.4243
RightLeg  59.7389 -1.21186 -2.71977
RightFoot  14.0947 -1.43488 6.67489
RightToes  0.00048216 0.542163 -0.142577
Spine  11.2703 2.66607 -3.2545
Spine1  8.33747 3.83017 -5.02625
HEad  2.39016 1.16631 -2.25458
LeftShoulder1  6.89783 -10.7546 -41.9905
LeftArm  -14.0255 25.0367 -32.4069
LeftForeArm  31.9052 -6.82422 -3.63731
LeftHand  -0.25398 0.0180481 5.50724
RightShoulder  4.58947 8.32187 32.8677
RightArm  -4.47211 -1.3793 45.3417
RightForeArm  9.91109 14.046 6.29493
RightHand  -1.0123 1.89298 -16.2485
LeftUpLeg  -14.9369 15.6876 -13.2762
LeftLeg  22.752 6.99247 3.55172
LeftFoot  -3.83829 -0.470233 7.52062
LeftToes  1.06246e-005 4.65856e-005 -8.18502e-006
48
root  13.5032 38.8149 2.95025 -134.616 -80.1379 126.284
RightUpLeg  -5.23854 1.67734 -12.65
RightLeg  64.9872 -1.08757 -3.17664
RightFoot  13.4071 -1.00381 5.00357
RightToes  0.00048216 0.542163 -0.142577
Spine  12.381 2.36456 -3.76624
Spine1  8.82481 3.23445 -4.31657
HEad  1.62944 1.96019 -3.50781
LeftShoulder1  6.88375 -10.6781 -42.14
LeftArm  -13.2702 25.8829 -32.8339
LeftForeArm  33.6454 -7.46846 -3.96985
LeftHand  -0.25398 0.0180481 5.50724
RightShoulder  4.62278 8.34389 33.0765
RightArm  -4.05055 -2.69632 45.1092
RightForeArm  10.9419 13.3387 6.54124
RightHand  -0.828229 0.962503 -15.2316
LeftUpLeg  -10.9637 16.6547 -12.6781
LeftLeg  21.594 6.4479 3.138
LeftFoot  -5.4877 -0.308696 6.66343
LeftToes  1.06246e-005 4.65856e-005 -8.18502e-006
49
root  12.1256 39.1599 3.07187 -137.422 -80.9459 128.569
RightUpLeg  -9.99364 2.03884 -11.2268
RightLeg  66.1097 -1.32076 -3.92829
RightFoot  10.297 -1.07611 6.00623
RightToes  0.00048216 0.542163 -0.142577
Spine  13.3058 1.83971 -3.22228
Spine1  9.11601 2.46722 -3.4597
HEad  1.38231 2.26318 -4.52995
LeftShoulder1  6.79781 -10.5204 -42.0761
LeftArm  -12.9653 26.0919 -33.563
LeftForeArm  35.2828 -8.67898 -4.21119
LeftHand  -0.25398 0.0180481 5.50724
RightShoulder  4.61975 8.28688 33.2386
RightArm  -2.02688 -4.70412 44.3647
RightForeArm  11.4694 14.0477 6.50615
RightHand  -0.820763 0.901559 -15.2154
LeftUpLeg  -6.99697 16.8014 -11.1529
LeftLeg  20.1201 6.38776 2.64118
LeftFoot  -7.17563 -0.161568 5.63433
LeftToes  1.06246e-005 4.65856e-005 -8.18502e-006
50
root  10.7607 39.4029 3.17995 -138.05 -82.2498 129.125
RightUpLeg  -14.2756 1.38702 -9.70919
RightLeg  63.8402 -1.91051 -4.81685
RightFoot  8.46404 -1.07875 6.49425
RightToes  0.00048216 0.542163 -0.142577
Spine  13.837 1.28423 -2.50497
Spine1  9.17452 1.64651 -2.60366
HEad  1.69269 2.14603 -5.12677
LeftShoulder1  6.70208 -10.4127 -41.7845
LeftArm  -13.0252 25.9372 -34.4555
LeftForeArm  35.6539 -10.2152 -4.26505
LeftHand  -0.25398 0.0180481 5.50724
RightShoulder  4.55024 8.15297 33.0926
RightArm  0.779027 -7.55215 43.5302
RightForeArm  10.1153 15.7704 6.1854
RightHand  -0.942663 1.36971 -16.2798
LeftUpLeg  -3.55552 15.0024 -9.54744
LeftLeg  18.7985 7.56049 1.89728
LeftFoot  -8.82952 -0.0629547 5.34112
LeftToes  1.06246e-005 4.65856e-005 -8.18502e-006
51
root  9.38192 39.6169 3.27917 -136.594 -83.5955 127.576
RightUpLeg  -17.4084 0.306713 -8.21326
RightLeg  58.352 -2.86665 -5.46912
RightFoot  7.37971 -0.771772 4.97487
RightToes  0.00048216 0.542163 -0.142577
Spine  14.3456 0.800265 -1.94525
Spine1  9.07512 0.88544 -1.55777
HEad  2.17212 1.87269 -5.34742
LeftShoulder1  6.63038 -10.3503 -41.5036
LeftArm  -12.7453 25.5286 -35.0692
LeftForeArm  34.8934 -12.3184 -4.19449
LeftHand  -0.25398 0.0180481 5.50724
RightShoulder  4.46276 8.00984 32.8189
RightArm  3.55541 -10.6569 42.5603
RightForeArm  7.35213 17.7185 5.7477
RightHand  -1.06356 1.80761 -17.2681
LeftUpLeg  -0.0176717 11.8751 -8.24617
LeftLeg  17.0031 9.47185 0.825486
LeftFoot  -9.9905 -0.00583027 5.59284
LeftToes  1.06246e-005 4.65856e-005 -8.18502e-006
52
root  7.99843 39.7163 3.34544 -131.644 -84.5621 122.309
RightUpLeg  -18.8143 -1.02023 -7.17444
RightLeg  49.5875 -3.95765 -5.31582
RightFoot  5.4029 -0.61719 4.47202
RightToes  0.00048216 0.542163 -0.142577
Spine  15.0389 0.487657 -2.03582
Spine1  8.98385 0.206648 -0.512394
HEad  2.44259 1.62907 -5.27463
LeftShoulder1  6.56789 -10.2642 -41.3585
LeftArm  -11.6902 24.7848 -35.187
LeftForeArm  33.5337 -15.0465 -3.98982
LeftHand  -0.25398 0.0180481 5.50724
RightShoulder  4.39091 7.87342 32.6522
RightArm  5.12018 -13.3005 41.459
RightForeArm  5.52891 18.9176 5.46358
RightHand  -1.11445 2.09582 -17.4075
LeftUpLeg  3.34722 9.28232 -7.50281
LeftLeg  15.7723 10.9453 -0.149952
LeftFoot  -11.465 0.0732023 5.31354
LeftToes  1.06246e-005 4.65856e-005 -8.18502e-006
53
root  6.55202 39.6208 3.36311 -121.065 -84.9146 111.573
RightUpLeg  -18.9035 -3.21719 -6.7603
RightLeg  37.9366 -4.58968 -4.10616
RightFoot  3.67953 -0.74299 5.81095
RightToes  0.00048216 0.542163 -0.142577
Spine  15.2574 0.310068 -2.96558
Spine1  9.08011 -0.391911 0.33325
HEad  2.4275 1.41599 -4.92226
LeftShoulder1  6.49737 -10.1683 -41.1879
LeftArm  -10.3484 23.768 -35.0148
LeftForeArm  32.1589 -18.1497 -3.61811
LeftHand  -0.25398 0.0180481 5.50724
RightShoulder  4.32071 7.71647 32.566
RightArm  4.88316 -15.2951 40.5131
RightForeArm  5.77933 18.9199 5.44407
RightHand  -1.0993 2.204 -16.9409
LeftUpLeg  6.07237 7.88899 -7.41772
LeftLeg  15.7304 11.4795 -0.800739
LeftFoot  -13.6195 0.177064 4.74243
LeftToes  1.06246e-005 4.65856e-005 -8.18502e-006
54
root  5.01485 39.4803 3.36263 -108.49 -84.8339 99.3514
RightUpLeg  -18.4526 -7.41974 -6.05647
RightLeg  24.2948 -3.37072 -2.04466
RightFoot  3.40881 -0.819584 6.50029
RightToes  0.00048216 0.542163 -0.142577
Spine  14.477 0.11257 -3.95166
Spine1  9.5277 -0.915604 1.20046
HEad  2.36303 1.13711 -4.36722
LeftShoulder1  6.42026 -10.1025 -40.8716
LeftArm  -9.80556 22.782 -34.6912
LeftForeArm  31.6801 -21.4516 -3.32498
LeftHand  -0.25398 0.0180481 5.50724
RightShoulder  4.25581 7.57661 32.4661
RightArm  3.01886 -16.9398 39.8932
RightForeArm  7.35174 17.9733 5.62214
RightHand  -1.03206 1.98003 -16.3897
LeftUpLeg  8.6405 6.60963 -7.7585
LeftLeg  15.1036 11.828 -1.42016
LeftFoot  -15.3595 0.264689 4.88474
LeftToes  1.06246e-005 4.65856e-005 -8.18502e-006
55
root  3.4184 39.3403 3.35141 -97.9342 -84.516 89.3693
RightUpLeg  -17.5508 -11.3579 -5.48942
RightLeg  10.56 -1.49245 0.83345
RightFoot  3.04102 -0.839248 6.8211
RightToes  0.00048216 0.542163 -0.142577
Spine  13.2229 -0.0884988 -4.67751
Spine1  10.153 -1.37699 2.11833
HEad  2.50775 0.702896 -3.87045
LeftShoulder1  6.34422 -10.0295 -40.5822
LeftArm  -10.7945 21.9909 -34.0714
LeftForeArm  32.7907 -24.8495 -3.55932
LeftHand  -0.25398 0.0180481 5.50724
RightShoulder  4.21652 7.50622 32.3545
RightArm  -0.109778 -18.464 39.5007
RightForeArm  9.34819 16.4266 5.8897
RightHand  -0.936302 1.47985 -15.9324
LeftUpLeg  11.3386 5.53459 -8.1582
LeftLeg  13.7777 11.887 -2.0162
LeftFoot  -16.7737 0.343371 5.12781
LeftToes  1.06246e-005 4.65856e-005 -8.18502e-006
56
root  1.76298 39.0987 3.30762 -89.8456 -84.0961 81.5877
RightUpLeg  -16.1588 -8.43437 -7.24402
RightLeg  0.263642 -5.38666 4.31103
RightFoot  1.38991 -0.877564 7.93944
RightToes  0.00048216 0.542163 -0.142577
Spine  12.3326 -0.22182 -5.28367
Spine1  10.4896 -1.74793 2.90153
HEad  2.79879 0.0866371 -3.68742
LeftShoulder1  6.27682 -9.9088 -40.5053
LeftArm  -12.6672 21.2369 -33.2078
LeftForeArm  34.4705 -28.0884 -4.20221
LeftHand  -0.25398 0.0180481 5.50724
RightShoulder  4.18609 7.45566 32.2531
RightArm  -4.14056 -19.742 39.215
RightForeArm  11.5273 14.3886 6.09124
RightHand  -0.860014 1.06374 -15.5567
LeftUpLeg  14.0192 5.75729 -8.0413
LeftLeg  13.4482 10.7226 -2.34032
LeftFoot  -18.6985 0.390544 4.34624
LeftToes  1.06246e-005 4.65856e-005 -8.18502e-006
